<svg width="35" height="35" viewBox="0 0 17 17" xmlns="http://www.w3.org/2000/svg"><title>Icon</title><path d="M14.4 7.958c0 .049.002.097.005.146a2.63 2.63 0 0 1 0 .292 2.63 2.63 0 0 0-.004.146L16.5 9.846l-1.29 3.104-2.407-.55c-.13.14-.264.275-.405.404l.551 2.407L9.846 16.5l-1.304-2.1a2.63 2.63 0 0 0-.146.005 2.63 2.63 0 0 1-.292 0 2.63 2.63 0 0 0-.146-.004L6.653 16.5 3.55 15.21l.55-2.407a7.166 7.166 0 0 1-.405-.405l-2.406.551L0 9.846l2.099-1.304a2.63 2.63 0 0 0-.004-.146 2.63 2.63 0 0 1 0-.292 2.63 2.63 0 0 0 .004-.146L0 6.653 1.289 3.55l2.406.55c.13-.14.265-.275.406-.405L3.55 1.29 6.653 0l1.305 2.099c.049 0 .097-.001.146-.004a2.63 2.63 0 0 1 .292 0c.048.003.097.004.146.004L9.846 0l3.104 1.289-.55 2.406c.14.13.275.265.404.406l2.407-.551L16.5 6.653l-2.1 1.305zm-.947 1.054l.032-.385a4.537 4.537 0 0 0 0-.766l-.032-.38 1.912-1.192-.697-1.686-2.196.51a7.041 7.041 0 0 0-.514-.567 9.936 9.936 0 0 0-.572-.518l.51-2.196-1.685-.697-1.2 1.912-.38-.032a4.586 4.586 0 0 0-.766 0l-.385.032-1.19-1.912-1.686.697.51 2.196a7.041 7.041 0 0 0-.567.514 9.936 9.936 0 0 0-.518.572l-2.196-.51-.697 1.685 1.912 1.2-.032.384a4.537 4.537 0 0 0 0 .766l.032.38-1.912 1.192.697 1.686 2.196-.51c.167.205.339.394.514.567.176.172.366.345.572.518l-.51 2.196 1.685.697 1.2-1.912.38.032a4.586 4.586 0 0 0 .766 0l.385-.032 1.191 1.912 1.686-.697-.51-2.196c.205-.167.394-.339.567-.514.172-.176.345-.366.518-.572l2.196.51.697-1.685-1.912-1.2zM8.25 5.202c.421 0 .817.08 1.187.24.37.16.693.377.969.652.275.276.493.599.652.969.16.37.24.766.24 1.187 0 .421-.08.817-.24 1.187-.16.37-.377.693-.652.969a3.075 3.075 0 0 1-.969.652c-.37.16-.766.24-1.187.24a2.97 2.97 0 0 1-1.187-.24 3.075 3.075 0 0 1-.969-.652 3.075 3.075 0 0 1-.652-.969 2.97 2.97 0 0 1-.24-1.187c0-.421.08-.817.24-1.187.16-.37.377-.693.652-.969.276-.275.599-.493.969-.652.37-.16.766-.24 1.187-.24zm0 5.187c.297 0 .575-.055.835-.166a2.143 2.143 0 0 0 1.138-1.138c.111-.26.166-.538.166-.835 0-.297-.055-.575-.166-.835a2.143 2.143 0 0 0-1.138-1.138 2.103 2.103 0 0 0-.835-.167 2.143 2.143 0 0 0-1.973 1.305c-.111.26-.167.538-.167.835a2.143 2.143 0 0 0 1.305 1.973c.26.111.538.166.835.166z" fill="#FFF" fill-rule="evenodd"/></svg>